<?xml version="1.0" encoding="UTF-8"?><svg id="Layer_1" xmlns="http://www.w3.org/2000/svg" viewBox="0 0 24 25"><polygon points="16.25 14.42 16.25 14.42 16.25 14.42 16.25 14.42" style="fill:#272a32;"/><polygon points="2.06 11.32 2.06 11.32 2.06 11.32 2.06 11.32" style="fill:#272a32;"/><polygon points="15.43 9.71 15.43 9.71 15.43 9.7 15.43 9.71" style="fill:#272a32;"/><polygon points="7.59 21.8 7.59 21.8 7.59 21.8 7.59 21.8" style="fill:#272a32;"/><polygon points="5.06 19.91 5.06 19.91 5.06 19.91 5.06 19.91" style="fill:#272a32;"/><polygon points="14.61 9.41 14.61 9.41 14.61 9.41 14.61 9.41" style="fill:#272a32;"/><polygon points="12.81 17.74 12.81 17.75 12.81 17.75 12.81 17.74" style="fill:#272a32;"/><polygon points="8.57 9.7 8.57 9.71 8.57 9.71 8.57 9.7" style="fill:#272a32;"/><path d="m17.68,14.89h0s.02-.03.02-.03h0s4.24-3.54,4.24-3.54h0c.38-.31.57-.77.56-1.2,0-.38-.13-.74-.38-1.03-.24-.29-.63-.51-1.07-.53h0l-5.53-.36h0s-.01,0-.01,0h0s0-.01,0-.01v-.02s-2.07-5.19-2.07-5.19h0c-.11-.29-.3-.53-.55-.71-.26-.18-.56-.28-.88-.28s-.62.1-.88.28c-.25.18-.44.42-.55.71h0s-2.06,5.19-2.06,5.19v.02s-.02.01-.02.01h-.02s0,0,0,0l-5.53.36h0c-.43.03-.82.24-1.07.53-.25.29-.38.66-.38,1.03,0,.42.18.89.56,1.2l4.24,3.53h0s.02.03.02.03h0s0,.02,0,.02v.02s-1.27,4.98-1.27,4.98c-.04.15-.06.29-.06.44.01.97.77,1.7,1.7,1.71.3,0,.62-.09.9-.26l4.4-2.78h0s.01,0,.01,0h.01s0,0,0,0l4.72,3h0c.25.16.54.24.82.24.84,0,1.53-.68,1.54-1.55,0-.13-.02-.26-.05-.39h0s-1.37-5.38-1.37-5.38v-.02s0-.02,0-.02Zm-.1,5.85h-.02s0,.02,0,.02h-.02s-4.72-3.01-4.72-3.01c-.24-.15-.53-.24-.81-.24s-.57.08-.81.24l-4.4,2.78h0s-.09.03-.09.03l-.13-.06-.06-.15v-.07s0,0,0,0l1.27-4.99h0c.03-.13.05-.25.05-.38,0-.17-.03-.33-.08-.49h0c-.09-.28-.26-.53-.49-.72h0s-4.24-3.53-4.24-3.53h0s-.02-.04-.02-.04l.02-.06h0s.02,0,.02,0l5.53-.36c.3-.02.58-.12.82-.3.23-.17.41-.41.52-.68h0s2.06-5.19,2.06-5.19v-.02s.02-.01.02-.01h.02s.02,0,.02,0h.01s0,.03,0,.03l2.06,5.19h0c.1.27.28.51.52.68.24.18.52.28.82.3l5.53.36h.02s.01.02.01.02v.05s0,.04,0,.04h0s-4.24,3.54-4.24,3.54h0c-.23.19-.4.43-.49.71-.05.16-.08.32-.08.49,0,.13.02.25.05.38h0s1.37,5.39,1.37,5.39h0s0,.03,0,.03l-.02.04Z" style="fill:#272a32;"/><polygon points="11.19 17.75 11.19 17.75 11.19 17.74 11.19 17.75" style="fill:#272a32;"/></svg>