<svg width="24" height="24" viewBox="0 0 24 24" fill="none" xmlns="http://www.w3.org/2000/svg">
<g clip-path="url(#clip0_1740_849)">
<path d="M12 24C18.6274 24 24 18.6274 24 12C24 5.37258 18.6274 0 12 0C5.37258 0 0 5.37258 0 12C0 18.6274 5.37258 24 12 24Z" fill="#0AC18E"/>
<path d="M15.955 8.01678C15.3474 6.63891 13.9511 6.34431 12.2418 6.62971L11.6925 4.5L10.3975 4.83449L10.9376 6.95806C10.597 7.04399 10.2471 7.11764 9.90037 7.21583L9.36027 5.10454L8.06526 5.43903L8.61457 7.56874C8.33531 7.64853 6 8.24693 6 8.24693L6.35597 9.634C6.35597 9.634 7.30728 9.36702 7.29808 9.3885C7.8259 9.25041 8.07447 9.51432 8.19108 9.76289L9.7009 15.5996C9.71931 15.7684 9.68862 16.0569 9.32651 16.1551C9.34799 16.1673 8.38441 16.3975 8.38441 16.3975L8.52557 18.0147C8.52557 18.0147 10.8394 17.4225 11.1432 17.3457L11.6986 19.5L12.9937 19.1655L12.4382 16.9959C12.7942 16.9131 13.141 16.8271 13.4785 16.7381L14.0309 18.8955L15.3259 18.561L14.7705 16.4098C16.7651 15.9249 18.1737 14.6667 17.8852 12.7426C17.7011 11.5827 16.4337 10.6313 15.3811 10.5239C16.0286 9.95008 16.357 9.11232 15.955 8.01678ZM15.332 13.0955C15.5898 15.0012 12.9415 15.2345 12.0669 15.4646L11.3059 12.6137C12.1835 12.3836 14.8963 11.4169 15.332 13.0955ZM13.7363 9.21358C14.0094 10.9075 11.7447 11.1039 11.0143 11.2911L10.3208 8.70417C11.0542 8.52312 13.1809 7.64546 13.7363 9.21358Z" fill="white"/>
</g>
<defs>
<clipPath id="clip0_1740_849">
<rect width="24" height="24" fill="white"/>
</clipPath>
</defs>
</svg>
