<svg width="24" height="24" viewBox="0 0 24 24" fill="none" xmlns="http://www.w3.org/2000/svg">
<circle cx="12" cy="12" r="12" fill="#EE2649"/>
<path fill-rule="evenodd" clip-rule="evenodd" d="M7.24021 17.8163C8.57997 18.92 10.2624 19.5255 11.9999 19.5255C16.1355 19.5255 19.5 16.1553 19.5 12.0127C19.5 10.254 18.8827 8.55157 17.7587 7.20264L17.7622 7.19608L17.6851 7.10841L17.6828 7.10364L17.6659 7.08616C17.6311 7.04476 17.4221 6.79982 17.1108 6.51029C17.0477 6.45161 16.9822 6.39194 16.9113 6.33128L16.784 6.22226L16.7797 6.22563C15.4366 5.11157 13.746 4.5 11.9999 4.5C7.86447 4.5 4.5 7.87015 4.5 12.0127C4.5 13.776 5.12064 15.483 6.25023 16.8336L6.32229 16.9259C6.33339 16.9401 6.35114 16.9612 6.3781 16.9921L6.38306 16.9975C6.40234 17.0196 6.42503 17.0447 6.45115 17.0731L6.4574 17.0798C6.53674 17.1656 6.79822 17.4435 7.08909 17.6939L7.23673 17.82L7.24021 17.8163ZM11.6884 11.298L15.7324 7.24701C14.6693 6.41001 13.3525 5.9515 11.9999 5.9515C11.9011 5.9515 11.7981 5.95458 11.6884 5.96074V11.298ZM10.2394 10.2904V6.21303C8.29312 6.80558 6.77636 8.33601 6.19868 10.2904H10.2394ZM5.949 12.0127C5.949 11.9268 5.95133 11.8381 5.95619 11.7417H10.2394V12.7494L7.24228 15.7517C6.40675 14.6866 5.949 13.3676 5.949 12.0127ZM8.26789 16.7789C9.33112 17.6156 10.6477 18.074 11.9999 18.074C15.3365 18.074 18.0509 15.3549 18.0509 12.0127C18.0509 10.6582 17.5934 9.33932 16.7581 8.27445L8.26789 16.7789Z" fill="white"/>
</svg>
