<svg width="24" height="24" viewBox="0 0 24 24" fill="none" xmlns="http://www.w3.org/2000/svg">
<g clip-path="url(#clip0_1740_968)">
<path d="M12 24C18.6274 24 24 18.6274 24 12C24 5.37258 18.6274 0 12 0C5.37258 0 0 5.37258 0 12C0 18.6274 5.37258 24 12 24Z" fill="#2775CA"/>
<path d="M14.2938 3.99928C14.3436 3.79978 14.5431 3.7001 14.7426 3.79979C17.4851 4.69735 19.6792 6.84157 20.5768 9.68386C22.0727 14.421 19.4797 19.4574 14.7426 20.9533C14.6927 21.0031 14.593 21.0031 14.5431 21.0031C14.3436 20.9533 14.2439 20.8037 14.2439 20.6042V19.9062C14.2439 19.6568 14.3436 19.5072 14.5431 19.4075C16.5875 18.6595 18.2331 17.0639 18.981 14.9696C20.4272 11.1299 18.4326 6.79167 14.5431 5.39554C14.3935 5.29573 14.2439 5.09635 14.2439 4.89685V4.19878C14.2439 4.09897 14.2439 4.04919 14.2938 3.99928ZM9.4569 3.75C9.6564 3.79978 9.75609 3.94938 9.75609 4.14888V4.84694C9.75609 5.09635 9.6564 5.24594 9.4569 5.34563C7.41248 6.0936 5.76695 7.68923 5.01898 9.78355C3.57282 13.6232 5.56745 17.9614 9.4569 19.3576C9.60649 19.4574 9.75609 19.6568 9.75609 19.8064V20.5046C9.75609 20.6042 9.75609 20.6541 9.70618 20.7039C9.6564 20.9034 9.4569 21.0031 9.2574 20.9034C6.46501 20.0059 4.32079 17.8616 3.42322 15.0693C1.92728 10.3321 4.52029 5.29573 9.2574 3.79979C9.3073 3.75 9.40699 3.75 9.4569 3.75ZM12.3491 6.34289C12.5984 6.39279 12.748 6.54239 12.748 6.74188V7.93864C13.8948 8.03833 14.7924 8.88599 14.9919 9.98305V10.033C14.9919 10.2323 14.8423 10.3819 14.6428 10.3819H13.845C13.6954 10.3819 13.5458 10.2822 13.4959 10.1326C13.2467 9.38468 12.748 9.08549 11.8504 9.08549C10.8532 9.08549 10.3545 9.53415 10.3545 10.2323C10.3545 10.9305 10.6537 11.3294 12.1496 11.5289C14.2439 11.7782 15.2911 12.3766 15.2911 14.1218C15.2911 15.4681 14.2938 16.5153 12.7979 16.7647V17.9615C12.748 18.2107 12.5984 18.3603 12.3989 18.3603H11.6509C11.4016 18.3104 11.252 18.1608 11.252 17.9615V16.7647C9.60649 16.5153 8.80862 15.6177 8.60924 14.3712V14.3213C8.60924 14.1218 8.75883 13.9722 8.95821 13.9722H9.80599C9.95559 13.9722 10.1052 14.072 10.155 14.2714C10.3046 15.0194 10.7533 15.5679 12.0499 15.5679C12.9973 15.5679 13.6954 15.0195 13.6954 14.2216C13.6954 13.4237 13.2467 13.1245 11.8504 12.8752C9.75609 12.6258 8.75883 11.9777 8.75883 10.3321C8.75883 9.08549 9.70618 8.08823 11.2021 7.88873V6.74188C11.252 6.49248 11.4016 6.34289 11.6011 6.34289H12.3491Z" fill="white"/>
</g>
<defs>
<clipPath id="clip0_1740_968">
<rect width="24" height="24" fill="white"/>
</clipPath>
</defs>
</svg>
