<svg width="24" height="24" viewBox="0 0 24 24" fill="none" xmlns="http://www.w3.org/2000/svg">
<circle cx="12" cy="12" r="12" fill="#26A17B"/>
<path fill-rule="evenodd" clip-rule="evenodd" d="M13.4415 8.57026V10.3448C16.7363 10.497 19.212 11.1503 19.212 11.9325C19.212 12.7148 16.7363 13.368 13.4415 13.5195V19.2075H10.5068V13.521C7.20676 13.3688 4.72501 12.7155 4.72501 11.9325C4.72501 11.1495 7.20676 10.4955 10.5068 10.344V8.57026H6.44626V5.86426H17.502V8.57026H13.4415ZM13.4415 13.0358V13.0373C16.3515 12.9083 18.5228 12.402 18.5228 11.7945C18.5228 11.1885 16.3515 10.6808 13.4415 10.551V12.5333C13.3568 12.5408 12.903 12.5783 11.9978 12.5783C11.2433 12.5783 10.6973 12.546 10.5068 12.5325V10.5495C7.59076 10.68 5.41426 11.1878 5.41426 11.7945C5.41426 12.402 7.59076 12.9098 10.5068 13.038V13.0358C10.6943 13.0448 11.2275 13.0673 11.985 13.0673C12.9338 13.0673 13.359 13.0418 13.4415 13.0358Z" fill="white"/>
</svg>
