<?xml version="1.0" encoding="utf-8"?>

<svg width="51px" height="59px" viewBox="0 0 51 59" version="1.1" xmlns="http://www.w3.org/2000/svg" xmlns:xlink="http://www.w3.org/1999/xlink">
    <g id="Page-1" stroke="none" stroke-width="1" fill="none" fill-rule="evenodd">
        <g id="Wallet" transform="translate(-49.000000, -60.000000)" fill="#1EAFED">
            <g id="Group-3" transform="translate(49.000000, 60.000000)">
                <path d="M48.688303,39.7500957 L48.688303,19.2499043 C50.0137436,18.9329033 51,17.7236383 51,16.2769199 C51,14.5903699 49.6558995,13.221891 47.9982424,13.221891 C47.1375267,13.221891 46.3626701,13.591567 45.81433,14.1833577 L28.3744454,3.93326199 C28.4558166,3.65490514 28.501049,3.36013938 28.501049,3.05490997 C28.501049,1.36728981 27.1570666,0 25.5005905,0 C23.8429334,0 22.4988329,1.36728981 22.4988329,3.05490997 C22.4988329,3.36013938 22.5441834,3.65490514 22.6254365,3.93326199 L5.18555192,14.1833577 C4.63851092,13.591567 3.86247325,13.221891 3.00175761,13.221891 C1.34398244,13.221891 0,14.5903699 0,16.2769199 C0,17.7236383 0.98743736,18.9329033 2.31169703,19.2499043 L2.31169703,39.7500957 C0.98743736,40.0670967 0,41.2775507 0,42.7230801 C0,44.4096301 1.34398244,45.7779901 3.00175761,45.7779901 C3.86247325,45.7779901 4.63851092,45.408433 5.18555192,44.8178313 L22.6254365,55.066738 C22.5441834,55.3450949 22.4988329,55.6398606 22.4988329,55.9461602 C22.4988329,57.6328291 23.8429334,59 25.5005905,59 C27.1570666,59 28.501049,57.6328291 28.501049,55.9461602 C28.501049,55.6398606 28.4558166,55.3450949 28.3744454,55.066738 L45.81433,44.8178313 C46.3626701,45.408433 47.1375267,45.7779901 47.9982424,45.7779901 C49.6558995,45.7779901 51,44.4096301 51,42.7230801 C51,41.2775507 50.0137436,40.0670967 48.688303,39.7500957 L48.688303,39.7500957 Z M47.4859229,15.1645627 L47.4859229,15.1645627 C47.5231245,15.1482727 47.5603261,15.1318637 47.5985907,15.1178329 C47.6009527,15.1166439 47.6044957,15.1166439 47.6079206,15.1154548 C47.6265805,15.1084394 47.6463032,15.101424 47.664845,15.0955977 C47.6892918,15.0897713 47.7137385,15.0827559 47.7380672,15.0769296 C47.7496411,15.0745515 47.7635769,15.0722923 47.7763318,15.0687251 C47.8065655,15.0640878 47.8379802,15.0581426 47.8682139,15.0546943 C47.8751818,15.0546943 47.8809687,15.0535053 47.8879366,15.0535053 C47.9239572,15.0499381 47.9610408,15.0476789 47.9982424,15.0476789 C48.6638562,15.0476789 49.2064094,15.5997553 49.2064094,16.2769199 C49.2064094,16.3154452 49.2040474,16.3529003 49.2005044,16.3891663 C49.1994415,16.3973708 49.1994415,16.4054563 49.1982605,16.4124717 C49.1948355,16.4476676 49.1901115,16.4827447 49.1831436,16.5178217 C49.1819626,16.5248371 49.1797187,16.5318525 49.1785377,16.5388679 C49.1715698,16.5693076 49.1646018,16.5996284 49.1552719,16.628879 C49.1529099,16.6348243 49.1517289,16.6418397 49.150666,16.647666 C49.1401551,16.6791759 49.1285812,16.7096156 49.1168893,16.7400553 C49.1122834,16.750519 49.1088585,16.7599125 49.1041344,16.7703761 C49.0913796,16.7985566 49.0786248,16.8276884 49.0635079,16.8546798 C49.058902,16.8651435 49.052997,16.8733479 49.0483911,16.8838116 C49.0368172,16.9037876 49.0252434,16.9224557 49.0123704,16.9424318 C49.0054025,16.9528954 48.9996156,16.9645481 48.9914667,16.9751307 C48.9763498,16.998555 48.9589891,17.0206714 48.9415102,17.0429066 C48.9321803,17.0558673 48.9229684,17.06752 48.9124575,17.0791727 C48.9008837,17.0932035 48.8881288,17.1060452 48.8764369,17.1201949 C48.8590761,17.137674 48.8415973,17.1552719 48.8242365,17.1715619 C48.8125446,17.1832146 48.8009707,17.1937972 48.7882159,17.2054499 C48.775343,17.2160324 48.7625881,17.2276851 48.7486523,17.2394567 C48.7289295,17.2558656 48.7092067,17.2709666 48.688303,17.2849974 C48.493083,17.4242353 48.2549926,17.507231 47.9982424,17.507231 C47.3326286,17.507231 46.7901935,16.9551546 46.7901935,16.2769199 C46.7901935,15.7857229 47.0758783,15.3623018 47.4859229,15.1645627 L47.4859229,15.1645627 Z M27.6379714,5.23146793 C27.678716,5.19056458 27.7402463,5.18236013 27.7890218,5.21042173 L45.1243875,15.3985679 C45.0418353,15.6768058 44.9976658,15.9715716 44.9976658,16.2769199 C44.9976658,16.5821493 45.0418353,16.8769151 45.1243875,17.1563421 L38.9339194,20.7937682 C38.3855792,20.2030476 37.6096597,19.8334905 36.7500069,19.8334905 C36.4490872,19.8334905 36.1598593,19.8791501 35.8857483,19.9633349 L27.6182486,5.38473662 C27.5903769,5.33562881 27.5985258,5.2724902 27.6379714,5.23146793 L27.6379714,5.23146793 Z M37.9522689,22.9925614 L37.9522689,22.9925614 C37.948844,23.0252603 37.94412,23.0580781 37.9395141,23.090777 C37.9383331,23.0954143 37.9383331,23.1012406 37.9372702,23.1059968 C37.9313651,23.1376256 37.9243972,23.1691355 37.9162483,23.1995752 C37.9151854,23.2042125 37.9151854,23.2088498 37.9128234,23.213606 C37.9046745,23.2451158 37.8942816,23.2767446 37.8837707,23.3071843 C37.8825897,23.3094435 37.8814087,23.3130106 37.8814087,23.3153887 C37.8698348,23.3468986 37.855899,23.3784084 37.8419632,23.4100372 C37.6491052,23.8276319 37.2320927,24.1188305 36.7500069,24.1188305 C36.6813906,24.1188305 36.6152544,24.1106261 36.5513621,24.1000435 C36.5455752,24.0989734 36.5408512,24.0989734 36.5362452,24.0977843 C36.5048305,24.091958 36.4735339,24.0848237 36.4433002,24.0767381 L36.4305454,24.073171 C36.3991307,24.0638964 36.3678341,24.0545029 36.3376004,24.0427313 C36.3352384,24.0427313 36.3329945,24.0416611 36.3306325,24.0404721 C35.8706314,23.8662761 35.54184,23.4170526 35.54184,22.8884005 C35.54184,22.8194355 35.5476269,22.7527298 35.5593188,22.6861429 C35.5604998,22.6813867 35.5604998,22.6767494 35.5616808,22.6709231 C35.5674677,22.6392943 35.5744357,22.6088546 35.5825846,22.5773447 C35.5836475,22.5727074 35.5848285,22.5679512 35.5860095,22.564503 C35.5941584,22.5316852 35.6046694,22.5001753 35.6150622,22.4697356 C35.6162432,22.4673575 35.6174242,22.4650983 35.6184871,22.4627202 C35.630179,22.4299024 35.6429339,22.3983926 35.6568697,22.3679529 L35.6568697,22.3667638 C35.8497277,21.949288 36.2667402,21.6591595 36.7500069,21.6591595 C36.7836656,21.6591595 36.8173242,21.6615376 36.8522819,21.6639157 C36.8835785,21.667364 36.9161742,21.6721202 36.9474708,21.6767575 C36.9520767,21.6779465 36.9579817,21.6779465 36.9625876,21.6791356 C36.9938843,21.6849619 37.024118,21.6931664 37.0543517,21.7001818 L37.0682875,21.7037489 C37.0997022,21.7130235 37.1309988,21.722417 37.1612325,21.7340697 C37.1635945,21.7352588 37.1658384,21.7364478 37.1682004,21.7364478 C37.6282014,21.9106438 37.9569929,22.3609375 37.9569929,22.8884005 C37.9569929,22.9234775 37.9546309,22.9585545 37.9522689,22.9925614 L37.9522689,22.9925614 Z M33.874853,23.7667525 L27.6833219,27.4053677 C27.2883942,26.9773093 26.7714688,26.6661346 26.1894701,26.5268967 L26.1894701,6.15072331 C26.1894701,6.09341104 26.2277346,6.04311419 26.2824151,6.02801324 C26.3381585,6.01279338 26.3950829,6.03728784 26.4229545,6.08758469 L34.6915172,20.6663019 C34.1118804,21.2230156 33.7482493,22.0124266 33.7482493,22.8884005 C33.7482493,23.1937488 33.7924189,23.4883957 33.874853,23.7667525 L33.874853,23.7667525 Z M26.7086394,42.6494778 C26.7086394,42.9441247 26.6064826,43.2142771 26.4357094,43.4260471 C26.4275605,43.4354406 26.4205925,43.4447152 26.4124436,43.4541087 C26.3985078,43.4705176 26.3833909,43.4868076 26.3694551,43.5020274 C26.3578812,43.5136801 26.3463074,43.5266408 26.3334345,43.5371044 C26.3218606,43.548876 26.3102868,43.5593397 26.2985948,43.5711113 C26.0848331,43.7629052 25.8061162,43.879789 25.5005905,43.879789 C25.2438403,43.879789 25.0057499,43.7967932 24.8105299,43.6575553 L24.8093489,43.6575553 C24.7721473,43.6306828 24.7350638,43.6002431 24.7014052,43.5699222 L24.6664474,43.5382935 C24.6548736,43.5266408 24.6421188,43.5136801 24.6304268,43.5008384 C24.6166091,43.4868076 24.6037361,43.4727768 24.5909813,43.4576758 C24.4062723,43.2412685 24.2924235,42.9593445 24.2924235,42.6494778 C24.2924235,42.3733802 24.3830065,42.1196367 24.5352379,41.9138119 C24.5352379,41.9126229 24.5364189,41.9114338 24.5375999,41.9102448 C24.5619286,41.8775459 24.5875564,41.8459171 24.6142471,41.8166665 C24.6166091,41.8144073 24.618853,41.8120292 24.620034,41.8096511 C24.6479057,41.7804004 24.6757774,41.7535279 24.7048301,41.7266553 C24.7071921,41.7242772 24.709436,41.7230881 24.711798,41.7208289 C24.9231977,41.5336723 25.1984897,41.4202368 25.5005905,41.4202368 C25.8013922,41.4202368 26.0768023,41.5336723 26.288202,41.7208289 C26.2916269,41.7230881 26.2939889,41.7254662 26.2962328,41.7278444 C26.3254036,41.7535279 26.3532753,41.7815895 26.379966,41.8108401 C26.3822099,41.8132182 26.3845719,41.8155963 26.3869339,41.8178555 C26.4136246,41.8471062 26.4391343,41.8787349 26.4635811,41.9114338 C26.4647621,41.9126229 26.4659431,41.9138119 26.4659431,41.915001 C26.4914528,41.9488889 26.5147186,41.985155 26.5368033,42.0214211 C26.6447471,42.2061996 26.7086394,42.4202368 26.7086394,42.6494778 L26.7086394,42.6494778 Z M16.3083647,20.6663019 L24.5770455,6.08758469 C24.6049171,6.03728784 24.6630225,6.01279338 24.7175849,6.02801324 C24.7721473,6.04311419 24.8105299,6.09341104 24.8105299,6.15072331 L24.8105299,26.5268967 C24.2285312,26.6661346 23.7127868,26.9773093 23.3166781,27.4053677 L17.12621,23.7667525 C17.2075811,23.4883957 17.2516326,23.1937488 17.2516326,22.8884005 C17.2516326,22.0124266 16.8893006,21.2230156 16.3083647,20.6663019 L16.3083647,20.6663019 Z M23.3166781,31.5947512 C23.7127868,32.0228096 24.2285312,32.3338654 24.8105299,32.4729844 L24.8105299,39.6775636 C23.6837341,39.946527 22.8021147,40.8623341 22.5639062,42.019043 L6.06728943,42.0062012 C6.01036505,42.0062012 5.96158958,41.967557 5.94647274,41.9126229 C5.93135589,41.8564997 5.95580267,41.7968093 6.00457813,41.7687477 L23.3166781,31.5947512 Z M24.2924235,29.5 C24.2924235,28.8216464 24.8337957,28.270759 25.5005905,28.270759 C26.1662043,28.270759 26.7086394,28.8216464 26.7086394,29.5 C26.7086394,30.1771646 26.1662043,30.729241 25.5005905,30.729241 C24.8337957,30.729241 24.2924235,30.1771646 24.2924235,29.5 L24.2924235,29.5 Z M24.2970294,2.95086801 L24.2970294,2.95086801 C24.3005724,2.91460195 24.3051784,2.87833589 24.3110834,2.84325889 C24.3121463,2.83850268 24.3121463,2.83624349 24.3133273,2.83267633 C24.3191142,2.79878838 24.3262002,2.76597057 24.3354121,2.73446071 C24.3365931,2.72863436 24.3377741,2.72280801 24.340018,2.71686276 C24.3481669,2.68654196 24.3586778,2.6572913 24.3690707,2.62804065 C24.3714327,2.61983619 24.3737947,2.61400984 24.3760386,2.60699444 C24.3877305,2.57893284 24.3993044,2.55206028 24.4120592,2.52518773 C24.4156022,2.51698328 24.4190271,2.50877882 24.4237511,2.50057437 C24.436506,2.47489087 24.4492608,2.45027751 24.4631967,2.42685321 C24.4689836,2.4174597 24.4747705,2.40818511 24.4794945,2.3987916 C24.4934304,2.37655635 24.5085472,2.35432109 24.5236641,2.33327489 C24.531813,2.32400029 24.5375999,2.31341774 24.5456307,2.30402423 C24.5607476,2.28416708 24.5758644,2.26430993 24.5921623,2.24552292 C24.6014922,2.23505927 24.6107041,2.22566577 24.620034,2.21627226 C24.6351508,2.19879321 24.6525116,2.18119526 24.6688095,2.16490526 C24.6805014,2.1543227 24.6908942,2.14504811 24.7014052,2.13446555 C24.7187659,2.1192457 24.7350638,2.10414475 24.7524245,2.08999504 C24.7652975,2.08072044 24.7780523,2.07132694 24.7908072,2.06074439 C24.8081679,2.04909169 24.8256468,2.03624993 24.8431256,2.02459723 C24.8581244,2.01401468 24.8732412,2.00581023 24.8871771,1.99641672 C24.9046559,1.98595307 24.9220167,1.97548943 24.9406766,1.96597702 C24.9568563,1.95789147 24.9731542,1.94968702 24.990633,1.94148257 C25.0079938,1.93327811 25.0242916,1.92519257 25.0428334,1.91698811 C25.0614933,1.90997271 25.080035,1.90295731 25.0997578,1.89594191 C25.1160556,1.88999665 25.1334164,1.88298125 25.1508952,1.87834395 C25.171799,1.87132855 25.1927028,1.86657235 25.2147876,1.8608649 C25.2310854,1.85729775 25.2473833,1.85254155 25.263563,1.8490933 C25.2880098,1.84326695 25.3135195,1.84088885 25.3390292,1.8374406 C25.3530831,1.8350625 25.365838,1.83268439 25.3797738,1.83161425 C25.4180383,1.82685804 25.457602,1.82566899 25.4970475,1.82447994 L25.5005905,1.82447994 C25.5017715,1.82447994 25.5028344,1.82447994 25.5028344,1.82566899 C25.542398,1.82566899 25.5818436,1.82685804 25.6202262,1.83161425 C25.634162,1.83268439 25.6480979,1.8350625 25.6620337,1.8374406 C25.6864805,1.84088885 25.7119902,1.84326695 25.7374999,1.8490933 C25.7537977,1.85254155 25.7700956,1.85729775 25.7852124,1.8608649 C25.8072972,1.86657235 25.828201,1.87132855 25.8491048,1.87834395 C25.8664655,1.88298125 25.8839444,1.88999665 25.9001241,1.89594191 C25.919965,1.90295731 25.9396878,1.90997271 25.9582295,1.91698811 C25.9757084,1.92519257 25.9920062,1.93327811 26.009367,1.94148257 C26.0267277,1.94968702 26.0442066,1.95789147 26.0605045,1.96597702 C26.0778652,1.97548943 26.0953441,1.98595307 26.1127048,1.99641672 C26.1278217,2.00581023 26.1429385,2.01401468 26.1568744,2.02459723 C26.1754161,2.03624993 26.191714,2.04909169 26.2091928,2.06074439 C26.2219477,2.07132694 26.2347025,2.08072044 26.2474574,2.08999504 C26.2649362,2.10414475 26.2812341,2.1192457 26.2985948,2.13446555 C26.3091058,2.14385906 26.3206796,2.1543227 26.3311905,2.16490526 C26.3485513,2.18119526 26.3648492,2.19879321 26.379966,2.21520212 C26.3903588,2.22566577 26.3996888,2.23505927 26.4078377,2.24552292 C26.4240175,2.26430993 26.4391343,2.28416708 26.4542512,2.30402423 C26.4624001,2.31341774 26.469368,2.32400029 26.4763359,2.33327489 C26.4914528,2.35432109 26.5065696,2.37655635 26.5205055,2.3987916 C26.5262924,2.40818511 26.5308983,2.4174597 26.5368033,2.42685321 C26.5507392,2.45027751 26.564675,2.47489087 26.5762489,2.49938532 C26.5808548,2.50877882 26.5843978,2.51698328 26.5890037,2.52518773 C26.6006956,2.55206028 26.6134505,2.57893284 26.6238433,2.60580539 C26.6262053,2.61400984 26.6285673,2.62102524 26.6319922,2.62804065 C26.6425032,2.6572913 26.651715,2.68654196 26.6610449,2.71686276 C26.6622259,2.72280801 26.6634069,2.72863436 26.6656508,2.73446071 C26.6737998,2.76597057 26.6807677,2.79878838 26.6877356,2.83148728 C26.6877356,2.83624349 26.6889166,2.83981064 26.6889166,2.84325889 C26.6947035,2.87833589 26.6994276,2.9134129 26.7028525,2.95086801 C26.7063955,2.98475596 26.7086394,3.01983297 26.7086394,3.05490997 C26.7086394,3.7332636 26.1662043,4.28415096 25.5005905,4.28415096 C24.8337957,4.28415096 24.2924235,3.7332636 24.2924235,3.05490997 C24.2924235,3.01983297 24.2947855,2.98475596 24.2970294,2.95086801 L24.2970294,2.95086801 Z M23.2109782,5.21042173 C23.2597537,5.18236013 23.322465,5.19056458 23.3619105,5.23146793 C23.4014742,5.2724902 23.4096231,5.33562881 23.3817514,5.38473662 L15.1142517,19.9633349 C14.8401407,19.8791501 14.5507947,19.8334905 14.2511741,19.8334905 C13.3903403,19.8334905 12.6144208,20.2030476 12.0672616,20.7937682 L5.8767935,17.1563421 C5.95816467,16.8769151 6.00221612,16.5821493 6.00221612,16.2769199 C6.00221612,15.9715716 5.95816467,15.6768058 5.8767935,15.3985679 L23.2109782,5.21042173 Z M14.7633754,24.0006389 L14.7633754,24.0006389 C14.7332598,24.0147886 14.7018451,24.0288194 14.6693675,24.0404721 C14.6670055,24.0416611 14.6646435,24.0427313 14.6623996,24.0427313 C14.6321659,24.0545029 14.6019322,24.0638964 14.5706356,24.073171 C14.5659116,24.07436 14.5613057,24.0755491 14.5566998,24.0767381 C14.5264661,24.0848237 14.4950514,24.091958 14.4649358,24.0977843 C14.4590307,24.0989734 14.4544248,24.0989734 14.4498189,24.1000435 C14.3847456,24.1106261 14.3184913,24.1188305 14.2511741,24.1188305 C13.7679073,24.1188305 13.3519577,23.8276319 13.1592179,23.4100372 C13.144101,23.3784084 13.1313462,23.3468986 13.1196542,23.3153887 C13.1184732,23.3118216 13.1174103,23.3094435 13.1162293,23.3071843 C13.1057184,23.2767446 13.0953255,23.2451158 13.0871766,23.213606 L13.0836336,23.1995752 C13.0756028,23.1691355 13.0686349,23.1376256 13.0639108,23.1059968 C13.0627298,23.1012406 13.0615488,23.0954143 13.0604859,23.0895879 C13.0557619,23.0580781 13.051156,23.0252603 13.0477311,22.9925614 C13.0453691,22.9585545 13.0430071,22.9234775 13.0430071,22.8884005 C13.0430071,22.3972035 13.32881,21.9737824 13.7388546,21.7761621 C13.7690883,21.7621313 13.8003849,21.7481005 13.8329806,21.7364478 C13.8352245,21.7364478 13.8375865,21.7352588 13.8387675,21.7340697 C13.8700641,21.722417 13.9002978,21.7130235 13.9317125,21.7037489 L13.9456483,21.7001818 C13.9757639,21.6931664 14.0059976,21.6849619 14.0374124,21.6791356 C14.0420183,21.6779465 14.0478052,21.6779465 14.0525292,21.6767575 C14.0838258,21.6721202 14.1164215,21.667364 14.1488991,21.6651048 L14.1488991,21.6639157 C14.1825577,21.6615376 14.2163344,21.6591595 14.2511741,21.6591595 C14.7692805,21.6591595 15.2118026,21.9936396 15.3825758,22.4627202 C15.3837568,22.4650983 15.3849378,22.4673575 15.3849378,22.4697356 C15.3965116,22.5001753 15.4058416,22.5316852 15.4139905,22.5633139 C15.4162344,22.5679512 15.4174154,22.5727074 15.4185964,22.5773447 C15.4267453,22.6088546 15.4337133,22.6392943 15.4383192,22.6709231 C15.4395002,22.6767494 15.4406812,22.6813867 15.4406812,22.6872131 C15.452255,22.7527298 15.4592229,22.8194355 15.4592229,22.8884005 C15.4592229,23.3795975 15.1735381,23.8042076 14.7633754,24.0006389 L14.7633754,24.0006389 Z M2.12462602,17.1201949 C2.11187117,17.1060452 2.10029734,17.0932035 2.0886054,17.0791727 C2.07821256,17.06752 2.06770163,17.0558673 2.0583717,17.0429066 C2.04101094,17.0206714 2.02471309,16.998555 2.00853333,16.9751307 C2.00156541,16.9645481 1.99459749,16.9540845 1.98762956,16.9424318 C1.97475662,16.9224557 1.96318278,16.9037876 1.95267185,16.8827414 C1.94688493,16.8733479 1.94109801,16.8651435 1.93649209,16.8558689 C1.92137524,16.8276884 1.9086204,16.7985566 1.89586556,16.7703761 C1.89114154,16.7599125 1.88771663,16.750519 1.88299262,16.7412444 C1.87141878,16.7096156 1.85984494,16.6791759 1.85051501,16.647666 C1.848153,16.6418397 1.846972,16.6348243 1.84472809,16.628879 C1.83539816,16.5996284 1.82843024,16.5693076 1.82146231,16.5388679 C1.82028131,16.5318525 1.81910031,16.5248371 1.8168564,16.5178217 C1.81106948,16.4827447 1.80516446,16.4476676 1.80173955,16.4124717 C1.80055855,16.4054563 1.80055855,16.3973708 1.79937754,16.3891663 C1.79595263,16.3529003 1.79359062,16.3154452 1.79359062,16.2769199 C1.79359062,15.5997553 2.33602571,15.0476789 3.00175761,15.0476789 C3.03884113,15.0476789 3.07604276,15.0499381 3.11324438,15.0535053 C3.1190313,15.0535053 3.12481822,15.0546943 3.13178614,15.0546943 C3.16320084,15.0581426 3.19343454,15.0640878 3.22355014,15.0687251 C3.23748599,15.0722923 3.25035893,15.0745515 3.26311377,15.0769296 C3.28744246,15.0827559 3.31070823,15.0897713 3.33515501,15.0955977 C3.35487778,15.101424 3.37341954,15.1084394 3.3919613,15.1154548 C3.39550431,15.1166439 3.39904732,15.1166439 3.40129123,15.1178329 C3.43967386,15.1318637 3.47793838,15.1470836 3.513959,15.1645627 C3.92400356,15.3623018 4.2098065,15.7857229 4.2098065,16.2769199 C4.2098065,16.9551546 3.66855241,17.507231 3.00175761,17.507231 C2.74500736,17.507231 2.50679888,17.4242353 2.31051603,17.2849974 L2.25122963,17.2394567 C2.23847479,17.2276851 2.22453895,17.2160324 2.2117841,17.2054499 C2.19902926,17.1937972 2.18745542,17.1832146 2.17576348,17.1715619 C2.15828463,17.1552719 2.14092387,17.137674 2.12462602,17.1201949 L2.12462602,17.1201949 Z M3.513959,43.8353184 L3.513959,43.8353184 C3.47793838,43.8517273 3.43967386,43.8681363 3.40129123,43.8821671 C3.39904732,43.8833561 3.39550431,43.8845452 3.3919613,43.8856153 C3.37341954,43.8926307 3.35487778,43.8973869 3.33515501,43.9032133 C3.31070823,43.9114177 3.28744246,43.9172441 3.26311377,43.9230704 C3.25035893,43.9254485 3.23748599,43.9277077 3.22355014,43.9312749 C3.19343454,43.9371012 3.16320084,43.9417385 3.13178614,43.9453057 C3.12481822,43.9453057 3.1190313,43.9464947 3.11324438,43.9464947 C3.07604276,43.949943 3.03884113,43.9523211 3.00175761,43.9523211 C2.33602571,43.9523211 1.79359062,43.4014337 1.79359062,42.7230801 C1.79359062,42.6845548 1.79595263,42.6482888 1.79937754,42.6108337 C1.80055855,42.6026292 1.80055855,42.5956138 1.80173955,42.5874094 C1.80516446,42.5523324 1.81106948,42.5172553 1.8168564,42.4821783 C1.81910031,42.4751629 1.82028131,42.4681475 1.82146231,42.4611321 C1.82843024,42.4306924 1.83539816,42.4003716 1.84472809,42.3710021 C1.846972,42.3652946 1.848153,42.3582792 1.85051501,42.352334 C1.85984494,42.3208241 1.87141878,42.2903844 1.88299262,42.2599447 C1.88771663,42.249481 1.89114154,42.2400875 1.89586556,42.2296239 C1.9086204,42.2014434 1.92137524,42.1723116 1.93649209,42.1453202 C1.94109801,42.1359267 1.94688493,42.1266521 1.95267185,42.1160695 C1.96318278,42.0962124 1.97475662,42.0775443 1.98762956,42.0576871 C1.99459749,42.0471046 2.00156541,42.0354519 2.00853333,42.0248693 C2.02471309,42.0015639 2.04101094,41.9793286 2.0583717,41.9570934 C2.06770163,41.9442516 2.07821256,41.93248 2.0886054,41.9208273 C2.10029734,41.9067965 2.11187117,41.8938359 2.12462602,41.879924 C2.14092387,41.862326 2.15828463,41.8447281 2.17576348,41.827249 C2.18745542,41.8166665 2.19902926,41.8062028 2.2117841,41.7956203 C2.22453895,41.7839676 2.23729379,41.772196 2.25122963,41.7605433 C2.2710705,41.7453234 2.29197427,41.7290334 2.31169703,41.7148837 C2.50797988,41.5757647 2.74500736,41.492769 3.00175761,41.492769 C3.66855241,41.492769 4.2098065,42.0447265 4.2098065,42.7230801 C4.2098065,43.2142771 3.92400356,43.6376982 3.513959,43.8353184 L3.513959,43.8353184 Z M3.92518456,39.6904054 C3.90203688,39.7302386 3.86129225,39.753544 3.8172408,39.753544 C3.80554887,39.753544 3.79515603,39.7524738 3.7846451,39.7500957 C3.73008272,39.7348759 3.69170009,39.68339 3.69170009,39.6260777 L3.69170009,19.2499043 C4.27369881,19.1107853 4.78944321,18.7996106 5.18555192,18.3715523 L11.3760201,22.0100485 C11.294767,22.2884053 11.2494164,22.5831711 11.2494164,22.8884005 C11.2494164,23.7655635 11.6130475,24.5550934 12.1938653,25.1118071 L3.92518456,39.6904054 Z M5.22854046,40.5827882 C5.19606286,40.5827882 5.16464815,40.5711355 5.14031947,40.5465221 C5.09969294,40.5056188 5.09154401,40.4424802 5.12059671,40.3921833 L13.3879783,25.8146552 C13.6610264,25.8976509 13.9514353,25.9433105 14.2511741,25.9433105 C15.1118897,25.9433105 15.8879274,25.5737534 16.4350865,24.9831518 L22.6254365,28.621648 C22.5441834,28.9000048 22.4988329,29.1947706 22.4988329,29.5 C22.4988329,29.8052294 22.5441834,30.0999952 22.6254365,30.378352 L5.29136987,40.5664982 C5.27152901,40.5781509 5.24956233,40.5827882 5.22854046,40.5827882 L5.22854046,40.5827882 Z M23.3166781,53.8515278 L5.95698367,43.6482807 C5.91623904,43.6248564 5.89415426,43.5803859 5.89529023,43.5336562 C5.90005928,43.5149881 5.9058462,43.4962011 5.91045212,43.477533 C5.93135589,43.4365107 5.97316342,43.4108272 6.01969498,43.4108272 L22.5963838,43.423669 C22.8752188,44.5126019 23.7301476,45.3639625 24.8105299,45.6224622 L24.8105299,52.9731758 C24.2285312,53.1122948 23.7127868,53.4234694 23.3166781,53.8515278 L23.3166781,53.8515278 Z M26.7028525,56.050321 L26.7028525,56.050321 C26.6994276,56.085398 26.6947035,56.1216641 26.6889166,56.1567411 C26.6889166,56.1603083 26.6877356,56.1649456 26.6877356,56.1685127 C26.6807677,56.2012116 26.6737998,56.2339105 26.6656508,56.2655393 C26.6634069,56.2713656 26.6622259,56.277192 26.6610449,56.2830183 C26.651715,56.313458 26.6425032,56.3427087 26.6319922,56.3719594 C26.6285673,56.3789748 26.6262053,56.3871792 26.6238433,56.3941946 C26.6134505,56.4210672 26.6006956,56.4479397 26.5890037,56.4749312 C26.5843978,56.4831356 26.5808548,56.4912212 26.5762489,56.5006147 C26.564675,56.525228 26.5507392,56.5497225 26.5368033,56.5731468 C26.5308983,56.5825403 26.5262924,56.5918149 26.5205055,56.6012084 C26.5065696,56.6234437 26.4914528,56.6456789 26.4763359,56.6667251 C26.469368,56.6771888 26.4624001,56.6865823 26.4542512,56.6959758 C26.4391343,56.7158329 26.4240175,56.7356901 26.4078377,56.7543582 C26.3996888,56.7649407 26.3903588,56.7742153 26.381147,56.7847979 C26.3648492,56.8023958 26.3485513,56.8186858 26.3311905,56.8350947 C26.3206796,56.8455584 26.3091058,56.8561409 26.2985948,56.8655344 C26.2812341,56.8807543 26.2649362,56.8959742 26.2474574,56.9098861 C26.2347025,56.9193985 26.2219477,56.9286731 26.2091928,56.9392556 C26.191714,56.9520974 26.1754161,56.9637501 26.1568744,56.9765918 C26.1429385,56.9859853 26.1278217,56.9953788 26.1127048,57.0035833 C26.0953441,57.0140469 26.0778652,57.0245106 26.0605045,57.0339041 C26.0430256,57.0432976 26.0267277,57.050313 26.009367,57.0585174 C25.9920062,57.0679109 25.9757084,57.0749263 25.9582295,57.0830119 C25.9396878,57.0912163 25.918784,57.0982317 25.9001241,57.1040581 C25.8839444,57.1100033 25.8664655,57.1170187 25.8502858,57.1228451 C25.828201,57.1286714 25.8061162,57.1344978 25.7840314,57.139254 C25.7689146,57.1438913 25.7526167,57.1473395 25.7374999,57.1509067 C25.7119902,57.1567331 25.6852995,57.1601813 25.6596717,57.1637485 C25.6469169,57.1649375 25.634162,57.1671967 25.6202262,57.1696937 C25.5806626,57.173142 25.541217,57.1754012 25.5005905,57.1754012 C25.4598459,57.1754012 25.4192193,57.173142 25.3797738,57.1696937 C25.367019,57.1671967 25.354146,57.1649375 25.3402102,57.1637485 C25.3147005,57.1601813 25.2880098,57.1567331 25.262382,57.1509067 C25.2473833,57.1473395 25.2322664,57.1438913 25.2159686,57.139254 C25.1938838,57.1333087 25.171799,57.1286714 25.1508952,57.1228451 C25.1334164,57.1170187 25.1172366,57.1100033 25.0997578,57.1040581 C25.081216,57.0982317 25.0614933,57.0912163 25.0428334,57.0830119 C25.0254726,57.0749263 25.0079938,57.0679109 24.991814,57.0585174 C24.9731542,57.050313 24.9568563,57.0432976 24.9394955,57.0339041 C24.9220167,57.0245106 24.9046559,57.0140469 24.8883581,57.0035833 C24.8732412,56.9941898 24.8581244,56.9859853 24.8431256,56.9765918 C24.8256468,56.9637501 24.8081679,56.9520974 24.7908072,56.9392556 C24.7780523,56.9286731 24.7652975,56.9193985 24.7524245,56.9098861 C24.7350638,56.8959742 24.7187659,56.8807543 24.7014052,56.8655344 C24.6908942,56.8549519 24.6805014,56.8455584 24.6688095,56.8350947 C24.6525116,56.8186858 24.6351508,56.8023958 24.620034,56.7836088 C24.6107041,56.7742153 24.6014922,56.7649407 24.5921623,56.7543582 C24.5770455,56.7356901 24.5607476,56.7158329 24.5456307,56.6959758 C24.5375999,56.6865823 24.531813,56.6771888 24.524727,56.6667251 C24.5085472,56.6456789 24.4934304,56.6234437 24.4794945,56.6012084 C24.4747705,56.5918149 24.4689836,56.5836104 24.4631967,56.5743358 C24.4492608,56.5497225 24.436506,56.525228 24.4237511,56.4994256 C24.4190271,56.4912212 24.4156022,56.4842058 24.4120592,56.4761202 C24.3993044,56.4491288 24.3877305,56.4210672 24.3760386,56.3930056 C24.3737947,56.3871792 24.3714327,56.3801638 24.3690707,56.3731484 C24.3586778,56.3438977 24.3481669,56.313458 24.340018,56.2830183 C24.3377741,56.277192 24.3365931,56.2713656 24.3354121,56.2667283 C24.3272631,56.2339105 24.3191142,56.2012116 24.3133273,56.1685127 C24.3121463,56.1649456 24.3121463,56.1614973 24.3121463,56.1579302 C24.2993914,56.0889652 24.2924235,56.0186923 24.2924235,55.9461602 C24.2924235,55.2679254 24.8337957,54.715849 25.5005905,54.715849 C26.1662043,54.715849 26.7086394,55.2679254 26.7086394,55.9461602 C26.7086394,55.980167 26.7063955,56.015244 26.7028525,56.050321 L26.7028525,56.050321 Z M44.9942409,43.6774125 L27.6833219,53.8515278 C27.2883942,53.4234694 26.7714688,53.1122948 26.1894701,52.9731758 L26.1894701,45.6224622 C27.2685533,45.3651515 28.1224192,44.5148611 28.4034981,43.4272361 L44.9327106,43.4400779 C44.988454,43.4400779 45.0384104,43.4786031 45.0535273,43.5336562 C45.0674631,43.5897794 45.0441973,43.6482807 44.9942409,43.6774125 L44.9942409,43.6774125 Z M45.0894298,41.9721943 C45.0674631,42.0108385 45.0268366,42.0354519 44.981486,42.0354519 L28.4372748,42.0224912 C28.2002473,40.8647122 27.3185098,39.946527 26.1894701,39.6775636 L26.1894701,32.4729844 C26.7714688,32.3338654 27.2872132,32.0228096 27.6833219,31.5947512 L45.0441973,41.7968093 C45.083761,41.8202336 45.1069086,41.8635151 45.1069086,41.9078667 C45.1011217,41.9290318 45.0941538,41.9499591 45.0894298,41.9721943 L45.0894298,41.9721943 Z M45.8596805,40.5465221 C45.8364148,40.5711355 45.8039371,40.5827882 45.7713414,40.5827882 C45.7504377,40.5827882 45.728471,40.5781509 45.7098111,40.5664982 L28.3744454,30.378352 C28.4558166,30.0999952 28.501049,29.8052294 28.501049,29.5 C28.501049,29.1947706 28.4569976,28.9000048 28.3744454,28.621648 L34.5660945,24.9831518 C35.1120726,25.5737534 35.8879922,25.9433105 36.7500069,25.9433105 C37.0497457,25.9433105 37.3389736,25.8976509 37.6119036,25.8146552 L45.8805843,40.3921833 C45.908456,40.4424802 45.9003071,40.5056188 45.8596805,40.5465221 L45.8596805,40.5465221 Z M38.8073157,25.1118071 C39.3869525,24.5550934 39.7505836,23.7655635 39.7505836,22.8884005 C39.7505836,22.5831711 39.706414,22.2884053 39.6239799,22.0100485 L45.81433,18.3715523 C46.2116197,18.7996106 46.7273641,19.1107853 47.3093628,19.2499043 L47.3093628,39.6260777 C47.3093628,39.68339 47.2710983,39.7348759 47.2153549,39.7500957 C47.204844,39.7524738 47.1944511,39.753544 47.1839402,39.753544 C47.1397707,39.753544 47.0979631,39.7302386 47.0746973,39.6904054 L38.8073157,25.1118071 Z M47.9982424,43.9523211 C47.9610408,43.9523211 47.9239572,43.949943 47.8879366,43.9464947 C47.8809687,43.9464947 47.8751818,43.9453057 47.8682139,43.9453057 C47.8379802,43.9417385 47.8065655,43.9371012 47.7763318,43.9312749 C47.7635769,43.9277077 47.7496411,43.9254485 47.7380672,43.9230704 C47.7137385,43.9172441 47.6892918,43.9114177 47.664845,43.9032133 C47.6463032,43.8973869 47.6265805,43.8926307 47.6079206,43.8856153 L47.5985907,43.8821671 C47.5603261,43.8681363 47.5231245,43.8517273 47.4859229,43.8353184 C47.0758783,43.6376982 46.7901935,43.2142771 46.7901935,42.7230801 C46.7901935,42.0447265 47.3326286,41.492769 47.9982424,41.492769 C48.2549926,41.492769 48.493083,41.5757647 48.688303,41.7148837 C48.7092067,41.7290334 48.7289295,41.7453234 48.7486523,41.7605433 C48.7625881,41.772196 48.775343,41.7839676 48.7882159,41.7956203 C48.8009707,41.8062028 48.8125446,41.8166665 48.8242365,41.827249 C48.8415973,41.8447281 48.8590761,41.862326 48.8764369,41.879924 C48.8881288,41.8938359 48.9008837,41.9067965 48.9124575,41.9208273 C48.9229684,41.93248 48.9321803,41.9442516 48.9415102,41.9570934 C48.9589891,41.9793286 48.9763498,42.0015639 48.9914667,42.0248693 C48.9996156,42.0354519 49.0054025,42.0471046 49.0135514,42.0576871 C49.0252434,42.0775443 49.0368172,42.0962124 49.0483911,42.1160695 C49.052997,42.1266521 49.058902,42.1359267 49.0635079,42.1441311 C49.0786248,42.1723116 49.0913796,42.2014434 49.1041344,42.2296239 C49.1088585,42.2400875 49.1122834,42.249481 49.1168893,42.2599447 C49.1285812,42.2903844 49.1401551,42.3208241 49.150666,42.352334 C49.1517289,42.3582792 49.1529099,42.3652946 49.1552719,42.3710021 C49.1646018,42.4003716 49.1715698,42.4306924 49.1785377,42.4611321 C49.1797187,42.4681475 49.1819626,42.4751629 49.1831436,42.4821783 C49.1901115,42.5172553 49.1948355,42.5523324 49.1982605,42.5874094 C49.1994415,42.5956138 49.1994415,42.6026292 49.2005044,42.6108337 C49.2040474,42.6482888 49.2064094,42.6845548 49.2064094,42.7230801 C49.2064094,43.4014337 48.6638562,43.9523211 47.9982424,43.9523211 L47.9982424,43.9523211 Z" id="Fill-1"></path>
            </g>
        </g>
    </g>
</svg>
