<svg width="24" height="24" viewBox="0 0 24 24" fill="none" xmlns="http://www.w3.org/2000/svg">
<g clip-path="url(#clip0_1740_835)">
<path d="M12 24C18.6274 24 24 18.6274 24 12C24 5.37258 18.6274 0 12 0C5.37258 0 0 5.37258 0 12C0 18.6274 5.37258 24 12 24Z" fill="black"/>
<path d="M12 9.132C14.799 9.132 17.769 8.259 17.769 6.639C17.769 5.019 14.799 4.146 12 4.146C9.201 4.146 6.231 5.01 6.231 6.63C6.231 8.259 9.201 9.132 12 9.132Z" fill="white"/>
<path d="M12 13.182C15.843 13.182 18.957 12.084 18.957 10.725C18.957 10.05 18.183 9.44698 16.941 9.00598C16.716 9.12298 16.5 9.23998 16.257 9.32998C15.015 9.80698 13.494 10.023 12 10.032C10.884 10.032 9.741 9.90598 8.724 9.64498C8.121 9.48298 7.563 9.28498 7.059 9.01498C5.817 9.44698 5.043 10.05 5.043 10.725C5.043 12.084 8.157 13.182 12 13.182Z" fill="white"/>
<path d="M17.085 13.344C15.708 13.803 13.944 14.073 12 14.073C10.686 14.073 9.444 13.947 8.355 13.731C7.833 13.623 7.347 13.497 6.897 13.344C4.548 13.938 3 14.928 3 16.044C3 17.853 7.032 19.32 12 19.32C16.968 19.32 21 17.853 21 16.044C21 14.919 19.443 13.938 17.085 13.344Z" fill="white"/>
</g>
<defs>
<clipPath id="clip0_1740_835">
<rect width="24" height="24" fill="white"/>
</clipPath>
</defs>
</svg>
